<svg
    width="54"
    height="54"
    viewBox="0 0 54 54"
    fill="none"
    xmlns="http://www.w3.org/2000/svg"
>
    <g clip-path="url(#clip0_4104_448)">
        <path
            d="M20.5714 10.2857H30.8571V5.14284H20.5714V10.2857ZM41.143 54C37.5857 54 34.554 52.7468 32.0477 50.2404C29.5397 47.7325 28.2857 44.7 28.2857 41.143C28.2857 37.5857 29.5397 34.5531 32.0477 32.0451C34.554 29.5388 37.5857 28.2857 41.143 28.2857C44.7 28.2857 47.7325 29.5388 50.2404 32.0451C52.7468 34.5531 54 37.5857 54 41.143C54 44.7 52.7468 47.7325 50.2404 50.2404C47.7325 52.7468 44.7 54 41.143 54ZM45.3858 47.1856L47.1856 45.3858L42.4286 40.6284V33.4286H39.857V41.6571L45.3858 47.1856ZM24.8786 48.8573H5.14284C3.72857 48.8573 2.51829 48.3539 1.512 47.3476C0.504001 46.3397 0 45.1286 0 43.7142V15.4286C0 14.0143 0.504001 12.804 1.512 11.7977C2.51829 10.7897 3.72857 10.2857 5.14284 10.2857H15.4286V5.14284C15.4286 3.72857 15.9326 2.51743 16.9406 1.50943C17.9469 0.503141 19.1572 0 20.5714 0H30.8571C32.2714 0 33.4826 0.503141 34.4906 1.50943C35.4969 2.51743 36 3.72857 36 5.14284V10.2857H46.2857C47.7001 10.2857 48.9113 10.7897 49.9191 11.7977C50.9255 12.804 51.4284 14.0143 51.4284 15.4286V26.4214C49.9284 25.35 48.2999 24.5357 46.543 23.9786C44.7857 23.4214 42.9855 23.1429 41.143 23.1429C36.1286 23.1429 31.8754 24.8889 28.3834 28.3809C24.8897 31.8746 23.1429 36.1286 23.1429 41.143C23.1429 42.5142 23.2826 43.843 23.562 45.1286C23.8397 46.4142 24.2786 47.6573 24.8786 48.8573Z"
            fill="#1074D8"
        />
    </g>
    <defs>
        <clipPath id="clip0_4104_448">
            <rect width="54" height="54" fill="white" />
        </clipPath>
    </defs>
</svg>