<svg
    width="77"
    height="54"
    viewBox="0 0 77 54"
    fill="none"
    xmlns="http://www.w3.org/2000/svg"
>
    <path
        d="M22.1375 6.75054C22.1375 10.475 19.1176 13.5003 15.4 13.5003C11.6824 13.5003 8.6625 10.475 8.6625 6.75054C8.6625 3.02609 11.6824 0.000732422 15.4 0.000732422C19.1176 0.000732422 22.1375 3.02609 22.1375 6.75054ZM7.7 25.7584C6.49687 27.1084 5.775 28.9044 5.775 30.857C5.775 32.8096 6.49687 34.6055 7.7 35.9555V25.7584ZM25.0731 19.8162C21.4998 22.9862 19.25 27.6267 19.25 32.7855C19.25 36.9197 20.6937 40.7163 23.1 43.6936V46.2851C23.1 48.4184 21.3796 50.1421 19.25 50.1421H11.55C9.42045 50.1421 7.7 48.4184 7.7 46.2851V43.0548C3.15219 40.8853 0 36.2448 0 30.857C0 23.396 6.02764 17.3574 13.475 17.3574H17.325C20.2125 17.3574 22.8834 18.2614 25.0731 19.8042V19.8162ZM53.9 46.2851V43.6936C56.3062 40.7163 57.75 36.9197 57.75 32.7855C57.75 27.6267 55.5001 22.9862 51.9269 19.8042C54.1168 18.2614 56.7875 17.3574 59.675 17.3574H63.525C70.9724 17.3574 77 23.396 77 30.857C77 36.2448 73.8476 40.8853 69.3 43.0548V46.2851C69.3 48.4184 67.5794 50.1421 65.45 50.1421H57.75C55.6206 50.1421 53.9 48.4184 53.9 46.2851ZM68.3375 6.75054C68.3375 10.475 65.3176 13.5003 61.6 13.5003C57.8824 13.5003 54.8625 10.475 54.8625 6.75054C54.8625 3.02609 57.8824 0.000732422 61.6 0.000732422C65.3176 0.000732422 68.3375 3.02609 68.3375 6.75054ZM69.3 25.7584V35.9675C70.5031 34.6055 71.225 32.8217 71.225 30.869C71.225 28.9164 70.5031 27.1205 69.3 25.7705V25.7584ZM38.5 15.4289C34.253 15.4289 30.8 11.9696 30.8 7.71479C30.8 3.46001 34.253 0.000732422 38.5 0.000732422C42.7469 0.000732422 46.2 3.46001 46.2 7.71479C46.2 11.9696 42.7469 15.4289 38.5 15.4289ZM28.875 32.7855C28.875 34.7381 29.5969 36.522 30.8 37.884V27.687C29.5969 29.049 28.875 30.8329 28.875 32.7855ZM46.2 27.687V37.8961C47.4031 36.534 48.125 34.7502 48.125 32.7976C48.125 30.8449 47.4031 29.049 46.2 27.699V27.687ZM53.9 32.7855C53.9 38.1733 50.7476 42.8138 46.2 44.9833V50.1421C46.2 52.2754 44.4794 53.9992 42.35 53.9992H34.65C32.5204 53.9992 30.8 52.2754 30.8 50.1421V44.9833C26.2522 42.8138 23.1 38.1733 23.1 32.7855C23.1 25.3245 29.1276 19.2859 36.575 19.2859H40.425C47.8724 19.2859 53.9 25.3245 53.9 32.7855Z"
        fill="#1074D8"
    />
</svg>