<svg
    width="65"
    height="29"
    viewBox="0 0 65 29"
    fill="none"
    xmlns="http://www.w3.org/2000/svg"
>
    <path
        d="M13.984 20.136V23H0.832V0.0239983H4.24V20.136H13.984ZM22.5263 6.488C23.7209 6.488 24.7983 6.68533 25.7583 7.08C26.7289 7.464 27.5503 8.024 28.2223 8.76C28.9049 9.48533 29.4276 10.3653 29.7903 11.4C30.1529 12.424 30.3343 13.576 30.3343 14.856C30.3343 16.136 30.1529 17.2933 29.7903 18.328C29.4276 19.3627 28.9049 20.2427 28.2223 20.968C27.5503 21.6933 26.7289 22.2533 25.7583 22.648C24.7983 23.032 23.7209 23.224 22.5263 23.224C21.3209 23.224 20.2329 23.032 19.2623 22.648C18.3023 22.2533 17.4809 21.6933 16.7983 20.968C16.1156 20.2427 15.5876 19.3627 15.2143 18.328C14.8516 17.2933 14.6703 16.136 14.6703 14.856C14.6703 13.576 14.8516 12.424 15.2143 11.4C15.5876 10.3653 16.1156 9.48533 16.7983 8.76C17.4809 8.024 18.3023 7.464 19.2623 7.08C20.2329 6.68533 21.3209 6.488 22.5263 6.488ZM22.5263 20.792C24.0623 20.792 25.2089 20.2747 25.9663 19.24C26.7236 18.2053 27.1023 16.7493 27.1023 14.872C27.1023 12.9947 26.7236 11.5387 25.9663 10.504C25.2089 9.45867 24.0623 8.936 22.5263 8.936C20.9689 8.936 19.8063 9.45867 19.0383 10.504C18.2809 11.5387 17.9023 12.9947 17.9023 14.872C17.9023 16.7493 18.2809 18.2053 19.0383 19.24C19.8063 20.2747 20.9689 20.792 22.5263 20.792ZM39.4353 14.888C39.9899 14.888 40.4753 14.8133 40.8913 14.664C41.3179 14.5147 41.6699 14.3067 41.9473 14.04C42.2353 13.7627 42.4486 13.432 42.5873 13.048C42.7366 12.664 42.8113 12.2427 42.8113 11.784C42.8113 10.8453 42.5233 10.0987 41.9473 9.544C41.3819 8.97867 40.5446 8.696 39.4353 8.696C38.3366 8.696 37.4993 8.97867 36.9233 9.544C36.3579 10.0987 36.0753 10.8453 36.0753 11.784C36.0753 12.2427 36.1446 12.664 36.2833 13.048C36.4326 13.4213 36.6459 13.7467 36.9233 14.024C37.2113 14.2907 37.5633 14.504 37.9793 14.664C38.4059 14.8133 38.8913 14.888 39.4353 14.888ZM44.4113 23.848C44.4113 23.464 44.3046 23.16 44.0913 22.936C43.8779 22.7013 43.5846 22.52 43.2113 22.392C42.8486 22.2533 42.4219 22.1573 41.9313 22.104C41.4406 22.04 40.9233 21.992 40.3793 21.96C39.8459 21.928 39.2966 21.9013 38.7313 21.88C38.1659 21.848 37.6219 21.7947 37.0993 21.72C36.5446 21.9973 36.0859 22.3333 35.7233 22.728C35.3713 23.1227 35.1953 23.5867 35.1953 24.12C35.1953 24.4613 35.2806 24.7813 35.4513 25.08C35.6326 25.3787 35.9046 25.6347 36.2673 25.848C36.6406 26.072 37.1046 26.2427 37.6593 26.36C38.2246 26.488 38.8966 26.552 39.6753 26.552C40.4433 26.552 41.1206 26.4827 41.7073 26.344C42.2939 26.216 42.7846 26.0293 43.1793 25.784C43.5846 25.5493 43.8886 25.2667 44.0913 24.936C44.3046 24.6053 44.4113 24.2427 44.4113 23.848ZM47.5793 7.352V8.52C47.5793 8.904 47.3393 9.144 46.8593 9.24L45.1153 9.496C45.2646 9.82667 45.3819 10.1787 45.4673 10.552C45.5526 10.9147 45.5953 11.2987 45.5953 11.704C45.5953 12.504 45.4406 13.2293 45.1313 13.88C44.8219 14.52 44.3953 15.0693 43.8513 15.528C43.3073 15.9867 42.6566 16.3387 41.8993 16.584C41.1526 16.8293 40.3313 16.952 39.4353 16.952C38.6993 16.952 38.0113 16.872 37.3713 16.712C37.0513 16.904 36.8059 17.1173 36.6353 17.352C36.4753 17.576 36.3953 17.8 36.3953 18.024C36.3953 18.3973 36.5499 18.6747 36.8593 18.856C37.1793 19.0373 37.5899 19.1707 38.0913 19.256C38.6033 19.3307 39.1846 19.3787 39.8353 19.4C40.4966 19.4213 41.1633 19.4587 41.8353 19.512C42.5179 19.5547 43.1846 19.64 43.8353 19.768C44.4966 19.8853 45.0779 20.0827 45.5793 20.36C46.0913 20.6267 46.5019 21 46.8113 21.48C47.1313 21.9493 47.2913 22.5627 47.2913 23.32C47.2913 24.024 47.1153 24.7067 46.7633 25.368C46.4219 26.0293 45.9206 26.616 45.2593 27.128C44.5979 27.64 43.7926 28.0507 42.8433 28.36C41.8939 28.6693 40.8166 28.824 39.6112 28.824C38.4059 28.824 37.3553 28.7067 36.4593 28.472C35.5739 28.2373 34.8326 27.9227 34.2353 27.528C33.6486 27.1333 33.2059 26.6747 32.9073 26.152C32.6193 25.6293 32.4753 25.0853 32.4753 24.52C32.4753 23.7307 32.7206 23.064 33.2113 22.52C33.7019 21.9653 34.3793 21.5333 35.2433 21.224C34.7739 21.0107 34.4006 20.7227 34.1233 20.36C33.8459 19.9867 33.7073 19.496 33.7073 18.888C33.7073 18.6533 33.7499 18.4133 33.8353 18.168C33.9206 17.912 34.0486 17.6613 34.2193 17.416C34.4006 17.16 34.6193 16.92 34.8753 16.696C35.1419 16.472 35.4459 16.2693 35.7873 16.088C34.9873 15.64 34.3579 15.048 33.8993 14.312C33.4406 13.5653 33.2113 12.696 33.2113 11.704C33.2113 10.904 33.3659 10.184 33.6753 9.544C33.9846 8.904 34.4113 8.35467 34.9553 7.896C35.5099 7.43733 36.1659 7.08533 36.9233 6.84C37.6913 6.59467 38.5286 6.472 39.4353 6.472C40.8433 6.472 42.0539 6.76533 43.0673 7.352H47.5793ZM57.12 6.488C58.3147 6.488 59.392 6.68533 60.352 7.08C61.3227 7.464 62.144 8.024 62.816 8.76C63.4987 9.48533 64.0213 10.3653 64.384 11.4C64.7467 12.424 64.928 13.576 64.928 14.856C64.928 16.136 64.7467 17.2933 64.384 18.328C64.0213 19.3627 63.4987 20.2427 62.816 20.968C62.144 21.6933 61.3227 22.2533 60.352 22.648C59.392 23.032 58.3147 23.224 57.12 23.224C55.9147 23.224 54.8267 23.032 53.856 22.648C52.896 22.2533 52.0747 21.6933 51.392 20.968C50.7093 20.2427 50.1813 19.3627 49.808 18.328C49.4453 17.2933 49.264 16.136 49.264 14.856C49.264 13.576 49.4453 12.424 49.808 11.4C50.1813 10.3653 50.7093 9.48533 51.392 8.76C52.0747 8.024 52.896 7.464 53.856 7.08C54.8267 6.68533 55.9147 6.488 57.12 6.488ZM57.12 20.792C58.656 20.792 59.8027 20.2747 60.56 19.24C61.3173 18.2053 61.696 16.7493 61.696 14.872C61.696 12.9947 61.3173 11.5387 60.56 10.504C59.8027 9.45867 58.656 8.936 57.12 8.936C55.5627 8.936 54.4 9.45867 53.632 10.504C52.8747 11.5387 52.496 12.9947 52.496 14.872C52.496 16.7493 52.8747 18.2053 53.632 19.24C54.4 20.2747 55.5627 20.792 57.12 20.792Z"
        fill="white"
    />
</svg>