<svg
    width="89"
    height="58"
    viewBox="0 0 89 58"
    fill="none"
    xmlns="http://www.w3.org/2000/svg"
>
    <path
        d="M25.984 38.136V41H12.832V18.024H16.24V38.136H25.984ZM34.5263 24.488C35.7209 24.488 36.7983 24.6853 37.7583 25.08C38.7289 25.464 39.5503 26.024 40.2223 26.76C40.9049 27.4853 41.4276 28.3653 41.7903 29.4C42.1529 30.424 42.3343 31.576 42.3343 32.856C42.3343 34.136 42.1529 35.2933 41.7903 36.328C41.4276 37.3627 40.9049 38.2427 40.2223 38.968C39.5503 39.6933 38.7289 40.2533 37.7583 40.648C36.7983 41.032 35.7209 41.224 34.5263 41.224C33.3209 41.224 32.2329 41.032 31.2623 40.648C30.3023 40.2533 29.4809 39.6933 28.7983 38.968C28.1156 38.2427 27.5876 37.3627 27.2143 36.328C26.8516 35.2933 26.6703 34.136 26.6703 32.856C26.6703 31.576 26.8516 30.424 27.2143 29.4C27.5876 28.3653 28.1156 27.4853 28.7983 26.76C29.4809 26.024 30.3023 25.464 31.2623 25.08C32.2329 24.6853 33.3209 24.488 34.5263 24.488ZM34.5263 38.792C36.0623 38.792 37.2089 38.2747 37.9663 37.24C38.7236 36.2053 39.1023 34.7493 39.1023 32.872C39.1023 30.9947 38.7236 29.5387 37.9663 28.504C37.2089 27.4587 36.0623 26.936 34.5263 26.936C32.9689 26.936 31.8063 27.4587 31.0383 28.504C30.2809 29.5387 29.9023 30.9947 29.9023 32.872C29.9023 34.7493 30.2809 36.2053 31.0383 37.24C31.8063 38.2747 32.9689 38.792 34.5263 38.792ZM51.4353 32.888C51.9899 32.888 52.4753 32.8133 52.8913 32.664C53.3179 32.5147 53.6699 32.3067 53.9473 32.04C54.2353 31.7627 54.4486 31.432 54.5873 31.048C54.7366 30.664 54.8113 30.2427 54.8113 29.784C54.8113 28.8453 54.5233 28.0987 53.9473 27.544C53.3819 26.9787 52.5446 26.696 51.4353 26.696C50.3366 26.696 49.4993 26.9787 48.9233 27.544C48.3579 28.0987 48.0753 28.8453 48.0753 29.784C48.0753 30.2427 48.1446 30.664 48.2833 31.048C48.4326 31.4213 48.6459 31.7467 48.9233 32.024C49.2113 32.2907 49.5633 32.504 49.9793 32.664C50.4059 32.8133 50.8913 32.888 51.4353 32.888ZM56.4113 41.848C56.4113 41.464 56.3046 41.16 56.0913 40.936C55.8779 40.7013 55.5846 40.52 55.2113 40.392C54.8486 40.2533 54.4219 40.1573 53.9313 40.104C53.4406 40.04 52.9233 39.992 52.3793 39.96C51.8459 39.928 51.2966 39.9013 50.7313 39.88C50.1659 39.848 49.6219 39.7947 49.0993 39.72C48.5446 39.9973 48.0859 40.3333 47.7233 40.728C47.3713 41.1227 47.1953 41.5867 47.1953 42.12C47.1953 42.4613 47.2806 42.7813 47.4513 43.08C47.6326 43.3787 47.9046 43.6347 48.2673 43.848C48.6406 44.072 49.1046 44.2427 49.6593 44.36C50.2246 44.488 50.8966 44.552 51.6753 44.552C52.4433 44.552 53.1206 44.4827 53.7073 44.344C54.2939 44.216 54.7846 44.0293 55.1793 43.784C55.5846 43.5493 55.8886 43.2667 56.0913 42.936C56.3046 42.6053 56.4113 42.2427 56.4113 41.848ZM59.5793 25.352V26.52C59.5793 26.904 59.3393 27.144 58.8593 27.24L57.1153 27.496C57.2646 27.8267 57.3819 28.1787 57.4673 28.552C57.5526 28.9147 57.5953 29.2987 57.5953 29.704C57.5953 30.504 57.4406 31.2293 57.1313 31.88C56.8219 32.52 56.3953 33.0693 55.8513 33.528C55.3073 33.9867 54.6566 34.3387 53.8993 34.584C53.1526 34.8293 52.3313 34.952 51.4353 34.952C50.6993 34.952 50.0113 34.872 49.3713 34.712C49.0513 34.904 48.8059 35.1173 48.6353 35.352C48.4753 35.576 48.3953 35.8 48.3953 36.024C48.3953 36.3973 48.5499 36.6747 48.8593 36.856C49.1793 37.0373 49.5899 37.1707 50.0913 37.256C50.6033 37.3307 51.1846 37.3787 51.8353 37.4C52.4966 37.4213 53.1633 37.4587 53.8353 37.512C54.5179 37.5547 55.1846 37.64 55.8353 37.768C56.4966 37.8853 57.0779 38.0827 57.5793 38.36C58.0913 38.6267 58.5019 39 58.8113 39.48C59.1313 39.9493 59.2913 40.5627 59.2913 41.32C59.2913 42.024 59.1153 42.7067 58.7633 43.368C58.4219 44.0293 57.9206 44.616 57.2593 45.128C56.5979 45.64 55.7926 46.0507 54.8433 46.36C53.8939 46.6693 52.8166 46.824 51.6112 46.824C50.4059 46.824 49.3553 46.7067 48.4593 46.472C47.5739 46.2373 46.8326 45.9227 46.2353 45.528C45.6486 45.1333 45.2059 44.6747 44.9073 44.152C44.6193 43.6293 44.4753 43.0853 44.4753 42.52C44.4753 41.7307 44.7206 41.064 45.2113 40.52C45.7019 39.9653 46.3793 39.5333 47.2433 39.224C46.7739 39.0107 46.4006 38.7227 46.1233 38.36C45.8459 37.9867 45.7073 37.496 45.7073 36.888C45.7073 36.6533 45.7499 36.4133 45.8353 36.168C45.9206 35.912 46.0486 35.6613 46.2193 35.416C46.4006 35.16 46.6193 34.92 46.8753 34.696C47.1419 34.472 47.4459 34.2693 47.7873 34.088C46.9873 33.64 46.3579 33.048 45.8993 32.312C45.4406 31.5653 45.2113 30.696 45.2113 29.704C45.2113 28.904 45.3659 28.184 45.6753 27.544C45.9846 26.904 46.4113 26.3547 46.9553 25.896C47.5099 25.4373 48.1659 25.0853 48.9233 24.84C49.6913 24.5947 50.5286 24.472 51.4353 24.472C52.8433 24.472 54.0539 24.7653 55.0673 25.352H59.5793ZM69.12 24.488C70.3147 24.488 71.392 24.6853 72.352 25.08C73.3227 25.464 74.144 26.024 74.816 26.76C75.4987 27.4853 76.0213 28.3653 76.384 29.4C76.7467 30.424 76.928 31.576 76.928 32.856C76.928 34.136 76.7467 35.2933 76.384 36.328C76.0213 37.3627 75.4987 38.2427 74.816 38.968C74.144 39.6933 73.3227 40.2533 72.352 40.648C71.392 41.032 70.3147 41.224 69.12 41.224C67.9147 41.224 66.8267 41.032 65.856 40.648C64.896 40.2533 64.0747 39.6933 63.392 38.968C62.7093 38.2427 62.1813 37.3627 61.808 36.328C61.4453 35.2933 61.264 34.136 61.264 32.856C61.264 31.576 61.4453 30.424 61.808 29.4C62.1813 28.3653 62.7093 27.4853 63.392 26.76C64.0747 26.024 64.896 25.464 65.856 25.08C66.8267 24.6853 67.9147 24.488 69.12 24.488ZM69.12 38.792C70.656 38.792 71.8027 38.2747 72.56 37.24C73.3173 36.2053 73.696 34.7493 73.696 32.872C73.696 30.9947 73.3173 29.5387 72.56 28.504C71.8027 27.4587 70.656 26.936 69.12 26.936C67.5627 26.936 66.4 27.4587 65.632 28.504C64.8747 29.5387 64.496 30.9947 64.496 32.872C64.496 34.7493 64.8747 36.2053 65.632 37.24C66.4 38.2747 67.5627 38.792 69.12 38.792Z"
        fill="white"
    />
</svg>