<svg
    width="64"
    height="64"
    viewBox="0 0 64 64"
    fill="none"
    xmlns="http://www.w3.org/2000/svg"
>
    <g clip-path="url(#clip0_4104_558)">
        <path
            d="M40.3989 59.4284C42.7471 59.4284 44.6511 57.382 44.6511 54.8572C44.6511 52.3324 42.7471 50.2856 40.3989 50.2856C38.0502 50.2856 36.1462 52.3324 36.1462 54.8572C36.1462 57.382 38.0502 59.4284 40.3989 59.4284Z"
            fill="#1074D8"
        />
        <path
            d="M4.2525 41.1428V45.7144H14.0035L0 60.768L3.00651 64L17.01 48.9464V59.4284H21.2625V41.1428H4.2525Z"
            fill="#1074D8"
        />
        <path
            d="M40.3989 13.7144C42.7471 13.7144 44.6511 11.6677 44.6511 9.14293C44.6511 6.61821 42.7471 4.57153 40.3989 4.57153C38.0502 4.57153 36.1462 6.61821 36.1462 9.14293C36.1462 11.6677 38.0502 13.7144 40.3989 13.7144Z"
            fill="#1074D8"
        />
        <path
            d="M4.2525 36.5713C6.60108 36.5713 8.50497 34.5246 8.50497 31.9999C8.50497 29.4752 6.60108 27.4285 4.2525 27.4285C1.90391 27.4285 0 29.4752 0 31.9999C0 34.5246 1.90391 36.5713 4.2525 36.5713Z"
            fill="#1074D8"
        />
        <path
            d="M55.2826 22.8572C53.4021 22.8632 51.5766 23.5396 50.0923 24.7805C48.6076 26.0214 47.5479 27.7566 47.0794 29.7143H37.9706C37.6696 28.4253 37.1083 27.2232 36.327 26.1932C35.5456 25.1632 34.5632 24.3306 33.4492 23.7541C32.3352 23.1777 31.1169 22.8717 29.8806 22.8577C28.6444 22.8437 27.4204 23.1221 26.2953 23.6732L19.5403 14.5989C20.6515 13.0302 21.2563 11.1146 21.2625 9.14288C21.2625 7.33456 20.7637 5.56688 19.8292 4.06336C18.8946 2.55983 17.5663 1.38796 16.0123 0.695964C14.4582 0.00396135 12.7481 -0.177098 11.0983 0.175682C9.4485 0.52846 7.93308 1.39923 6.74361 2.67788C5.55418 3.95654 4.74417 5.58564 4.41598 7.35916C4.08783 9.13272 4.25624 10.971 4.89996 12.6417C5.54368 14.3123 6.6338 15.7402 8.03243 16.7449C9.43109 17.7495 11.0754 18.2857 12.7576 18.2857C13.9565 18.2827 15.141 18.0045 16.2318 17.4697L22.9848 26.544C21.8734 28.1126 21.2686 30.0282 21.2625 32C21.2558 34.225 22.0058 36.376 23.3713 38.0481C24.7369 39.7202 26.6238 40.798 28.6771 41.0788C30.7303 41.36 32.8083 40.8244 34.5199 39.5732C36.2315 38.3221 37.4586 36.4416 37.9706 34.2857H47.0794C47.4798 35.9373 48.3029 37.4351 49.4553 38.609C50.608 39.7829 52.0435 40.586 53.5989 40.9268C55.1546 41.268 56.768 41.1332 58.256 40.5376C59.744 39.9426 61.0471 38.9107 62.0168 37.5595C62.9868 36.2082 63.5848 34.5917 63.7429 32.8935C63.901 31.1952 63.613 29.4834 62.912 27.9522C62.2106 26.421 61.1237 25.1319 59.7753 24.2313C58.4268 23.3307 56.87 22.8546 55.2826 22.8572ZM12.7576 13.7143C11.9165 13.7143 11.0943 13.4462 10.395 12.9439C9.69568 12.4416 9.1506 11.7276 8.82874 10.8923C8.50688 10.057 8.42268 9.1378 8.58677 8.251C8.75086 7.36424 9.15585 6.54968 9.75056 5.91036C10.3453 5.27104 11.103 4.83568 11.9279 4.65928C12.7528 4.48288 13.6079 4.5734 14.3849 4.9194C15.162 5.2654 15.8261 5.85136 16.2934 6.60312C16.7606 7.35488 17.01 8.23872 17.01 9.14288C17.0089 10.3549 16.5605 11.517 15.7633 12.374C14.966 13.231 13.885 13.7131 12.7576 13.7143ZM29.7675 36.5714C28.9264 36.5714 28.1043 36.3033 27.405 35.801C26.7057 35.2987 26.1606 34.5847 25.8387 33.7494C25.5168 32.9141 25.4326 31.9949 25.5967 31.1082C25.7608 30.2214 26.1658 29.4068 26.7605 28.7675C27.3552 28.1282 28.113 27.6928 28.9379 27.5164C29.7628 27.34 30.6178 27.4306 31.3949 27.7766C32.1719 28.1226 32.8361 28.7085 33.3033 29.4602C33.7706 30.212 34.02 31.0959 34.02 32C34.0189 33.212 33.5705 34.3741 32.7732 35.2312C31.976 36.0882 30.895 36.5702 29.7675 36.5714ZM55.2826 36.5714C54.4413 36.5714 53.6194 36.3033 52.9198 35.801C52.2207 35.2987 51.6755 34.5847 51.3537 33.7494C51.0318 32.9141 50.9477 31.9949 51.1118 31.1082C51.2759 30.2214 51.6808 29.4068 52.2754 28.7675C52.8703 28.1282 53.6279 27.6928 54.4528 27.5164C55.2778 27.34 56.1329 27.4306 56.9098 27.7766C57.6867 28.1226 58.3509 28.7085 58.8182 29.4602C59.2856 30.212 59.5349 31.0959 59.5349 32C59.5338 33.212 59.0854 34.3741 58.288 35.2312C57.491 36.0882 56.4101 36.5702 55.2826 36.5714Z"
            fill="#1074D8"
        />
    </g>
    <defs>
        <clipPath id="clip0_4104_558">
            <rect width="64" height="64" fill="white" />
        </clipPath>
    </defs>
</svg>