<svg
    width="54"
    height="54"
    viewBox="0 0 54 54"
    fill="none"
    xmlns="http://www.w3.org/2000/svg"
>
    <g clip-path="url(#clip0_4104_460)">
        <path
            d="M27 0C12.1122 0 0 12.1122 0 27C0 41.8878 12.1122 54 27 54C41.8878 54 54 41.8878 54 27C54 12.1122 41.8878 0 27 0ZM27 48.6C15.0903 48.6 5.4 38.9097 5.4 27C5.4 15.0903 15.0903 5.4 27 5.4C38.9097 5.4 48.6 15.0903 48.6 27C48.6 38.9097 38.9097 48.6 27 48.6Z"
            fill="#1074D8"
        />
        <path
            d="M17.55 27C19.7868 27 21.6 25.1868 21.6 22.95C21.6 20.7133 19.7868 18.9 17.55 18.9C15.3132 18.9 13.5 20.7133 13.5 22.95C13.5 25.1868 15.3132 27 17.55 27Z"
            fill="#1074D8"
        />
        <path
            d="M36.4311 26.9622C38.6575 26.9622 40.4622 25.1574 40.4622 22.9311C40.4622 20.7048 38.6575 18.9 36.4311 18.9C34.2048 18.9 32.4 20.7048 32.4 22.9311C32.4 25.1574 34.2048 26.9622 36.4311 26.9622Z"
            fill="#1074D8"
        />
        <path
            d="M27 43.2C37.8 43.2 40.5 32.4 40.5 32.4H13.5C13.5 32.4 16.2 43.2 27 43.2Z"
            fill="#1074D8"
        />
    </g>
    <defs>
        <clipPath id="clip0_4104_460">
            <rect width="54" height="54" fill="white" />
        </clipPath>
    </defs>
</svg>