<svg
    width="64"
    height="64"
    viewBox="0 0 64 64"
    fill="none"
    xmlns="http://www.w3.org/2000/svg"
>
    <g clip-path="url(#clip0_4104_600)">
        <path
            d="M60.6461 1.5801L62.4012 3.31644C64.8199 5.712 64.4541 9.95868 61.5769 12.8016L25.38 48.6084L13.6524 52.852C12.1798 53.3876 10.7458 52.6932 10.4542 51.3072C10.3557 50.8044 10.4021 50.284 10.5881 49.806L14.9614 38.105L51.0574 2.39529C53.9342 -0.447591 58.227 -0.812519 60.6461 1.58304V1.5801ZM23.8002 5.14108C24.1909 5.14108 24.5777 5.2172 24.9387 5.36508C25.2996 5.51296 25.6276 5.72976 25.9039 6.00304C26.1801 6.27632 26.3993 6.60072 26.5488 6.9578C26.6983 7.31484 26.7753 7.69752 26.7753 8.084C26.7753 8.47048 26.6983 8.85316 26.5488 9.21024C26.3993 9.56728 26.1801 9.89172 25.9039 10.165C25.6276 10.4383 25.2996 10.655 24.9387 10.8029C24.5777 10.9508 24.1909 11.027 23.8002 11.027H11.9001C10.3221 11.027 8.80863 11.6471 7.6928 12.7509C6.57693 13.8547 5.95006 15.3518 5.95006 16.9128V52.2284C5.95006 53.7892 6.57693 55.2864 7.6928 56.39C8.80863 57.494 10.3221 58.114 11.9001 58.114H47.6006C49.1783 58.114 50.6921 57.494 51.8076 56.39C52.9235 55.2864 53.5506 53.7892 53.5506 52.2284V40.4564C53.5506 39.6759 53.8641 38.9274 54.4219 38.3754C54.9797 37.8235 55.7363 37.5135 56.5254 37.5135C57.3144 37.5135 58.0711 37.8235 58.6293 38.3754C59.187 38.9274 59.5006 39.6759 59.5006 40.4564V52.2284C59.5006 55.3504 58.2469 58.3444 56.015 60.552C53.7835 62.7596 50.7565 64 47.6006 64H11.9001C8.74402 64 5.71714 62.7596 3.48546 60.552C1.25376 58.3444 0 55.3504 0 52.2284V16.9128C0 13.7908 1.25376 10.7966 3.48546 8.58896C5.71714 6.38132 8.74402 5.14108 11.9001 5.14108H23.8002Z"
            fill="#1074D8"
        />
    </g>
    <defs>
        <clipPath id="clip0_4104_600">
            <rect width="64" height="64" fill="white" />
        </clipPath>
    </defs>
</svg>