<svg
    width="64"
    height="64"
    viewBox="0 0 64 64"
    fill="none"
    xmlns="http://www.w3.org/2000/svg"
>
    <g clip-path="url(#clip0_4104_576)">
        <path
            d="M4.5913 25.44C1.83795 28.2071 0.207689 31.907 0.0185187 35.818C-0.170651 39.7291 1.09484 43.5708 3.56814 46.5936C6.04144 49.6168 9.54518 51.6044 13.3959 52.1688C17.2466 52.7328 21.1682 51.8336 24.3956 49.646L37.9184 63.2564C38.355 63.706 38.9454 63.9708 39.5694 63.9976C40.1936 64.0248 40.8042 63.8112 41.2772 63.4012C41.7507 62.9908 42.0508 62.4148 42.1168 61.7896C42.1828 61.1648 42.0098 60.538 41.6326 60.0368L41.3945 59.7588L27.9955 46.2728C30.446 43.1116 31.6062 39.1286 31.2396 35.1362C30.8731 31.1437 29.0074 27.4422 26.0228 24.7858C23.0382 22.1295 19.1594 20.7184 15.1767 20.8399C11.194 20.9615 7.40722 22.6066 4.58812 25.44H4.5913ZM31.8687 0C16.7573 0 4.11154 10.6115 0.886535 24.8326C2.77069 22.4266 5.20773 20.5174 7.98788 19.2695C11.0072 13.5366 15.9599 9.07568 21.9554 6.68852L21.6155 7.24484C19.9061 10.0999 18.5303 13.6744 17.5643 17.7316C19.1498 17.8915 20.7131 18.256 22.2192 18.8187C24.2272 10.4164 28.0114 4.799 31.8687 4.799L32.2341 4.81496C36.2566 5.18584 40.1391 11.5866 41.9438 20.7882H26.0669C27.9851 22.0702 29.6542 23.6945 30.9918 25.5807L42.6653 25.5839C43.2239 30.9083 43.0799 36.2836 42.2364 41.57H33.8291C33.5807 42.49 33.2631 43.39 32.8791 44.262L32.4692 45.1316L32.0816 45.8636L32.5836 46.3656H41.21C40.5653 48.7604 39.7802 50.8992 38.8843 52.712L42.3982 56.2512C43.9616 53.5084 45.2293 50.1512 46.1412 46.372L54.7931 46.3656C51.9501 50.9444 47.8211 54.5716 42.9289 56.7884L43.644 57.5016L44.0411 57.9492C44.74 58.8956 45.1371 59.9472 45.242 60.996C50.7405 58.4288 55.3942 54.3328 58.655 49.1916C61.9158 44.05 63.647 38.0775 63.6454 31.9783C63.6454 14.317 49.4171 0 31.8687 0ZM23.2518 28.9346C24.2559 29.9365 25.0535 31.1282 25.5987 32.4411C26.1439 33.754 26.4262 35.1623 26.4291 36.5852C26.432 38.0082 26.1557 39.4177 25.6159 40.7328C25.0762 42.048 24.2835 43.2432 23.2836 44.2492C22.2837 45.2552 21.0961 46.0528 19.7891 46.596C18.4821 47.1392 17.0814 47.4172 15.6673 47.4144C14.2532 47.4112 12.8536 47.1272 11.5488 46.5788C10.2441 46.03 9.05986 45.2276 8.06412 44.2172C6.06402 42.1876 4.94442 39.4435 4.95038 36.5852C4.9563 33.727 6.08731 30.9876 8.09584 28.9665C10.1044 26.9454 12.8268 25.8074 15.6673 25.8014C18.5077 25.7954 21.2349 26.922 23.2518 28.9346ZM47.4566 25.5839L58.1263 25.5807L58.1517 25.6766C58.6284 27.7005 58.8824 29.8074 58.8824 31.9751C58.8856 35.2513 58.2988 38.501 57.1508 41.5668L47.0658 41.5732C47.5202 38.5358 47.7587 35.313 47.7587 31.9783C47.7587 29.7914 47.6569 27.6525 47.4566 25.5839ZM41.7789 6.68532L41.852 6.71092C48.3562 9.3238 53.6034 14.3686 56.4929 20.7882H46.8055C45.8109 15.1835 44.0729 10.3078 41.7789 6.68852V6.68532Z"
            fill="#1074D8"
        />
    </g>
    <defs>
        <clipPath id="clip0_4104_576">
            <rect width="64" height="64" fill="white" />
        </clipPath>
    </defs>
</svg>