<svg
    width="64"
    height="64"
    viewBox="0 0 64 64"
    fill="none"
    xmlns="http://www.w3.org/2000/svg"
>
    <g clip-path="url(#clip0_4104_593)">
        <path
            d="M14.519 12.3836C18.774 8.40816 24.0265 5.98736 29.5621 5.45048V11.5552C29.5621 12.2624 29.8146 12.9406 30.2641 13.4407C30.7136 13.9408 31.3233 14.2218 31.959 14.2218C32.5947 14.2218 33.2044 13.9408 33.6539 13.4407C34.1034 12.9406 34.3559 12.2624 34.3559 11.5552V5.45048C40.8442 6.0916 46.9095 9.30448 51.447 14.5037C55.9842 19.703 58.692 26.5427 59.0763 33.7766H53.5313C52.8956 33.7766 52.2858 34.0576 51.8364 34.5577C51.387 35.0578 51.1342 35.736 51.1342 36.4432C51.1342 37.1504 51.387 37.8287 51.8364 38.3288C52.2858 38.8289 52.8956 39.1098 53.5313 39.1098H58.9451C58.1142 47.33 54.3975 54.2132 48.8205 59.262C48.3272 59.7088 48.0137 60.3556 47.9489 61.0596C47.8842 61.764 48.0737 62.4676 48.4753 63.0164C48.8773 63.5652 49.4583 63.914 50.0915 63.986C50.7243 64.058 51.3571 63.8476 51.8504 63.4004C58.9645 56.9544 63.5793 47.778 63.899 36.7881C63.9202 36.6042 63.9245 36.4183 63.9116 36.2334L63.918 35.5544C63.918 15.9177 49.6101 0 31.959 0C14.308 0 0 15.9177 0 35.5544C0 47.1168 4.86734 56.7236 12.0485 63.3792C12.5387 63.812 13.1616 64.014 13.784 63.9428C14.4065 63.8716 14.9792 63.5324 15.3797 62.9976C15.7804 62.4628 15.9771 61.7748 15.9279 61.0808C15.8787 60.3868 15.5876 59.7416 15.1166 59.2832C9.6516 54.2132 5.83892 47.312 4.9792 39.1098H10.3867C11.0224 39.1098 11.632 38.8289 12.0815 38.3288C12.5311 37.8287 12.7836 37.1504 12.7836 36.4432C12.7836 35.736 12.5311 35.0578 12.0815 34.5577C11.632 34.0576 11.0224 33.7766 10.3867 33.7766H4.83858C5.19015 27.0853 7.49436 20.9771 11.1313 16.1524L15.0847 20.5504C15.539 21.0214 16.14 21.2779 16.761 21.2657C17.3819 21.2535 17.9744 20.9736 18.4136 20.4851C18.8527 19.9965 19.1043 19.3374 19.1152 18.6466C19.1262 17.9558 18.8957 17.2872 18.4723 16.7817L14.519 12.3836ZM47.1716 16.4759C46.8002 16.1577 46.3421 15.9896 45.8736 15.9993C45.4048 16.009 44.9528 16.1959 44.5925 16.5292L43.8957 17.1799C41.3828 19.5275 38.8782 21.8859 36.3822 24.2552C34.2856 26.2462 32.1412 28.3084 30.4282 29.9901C29.6864 30.7153 28.9524 31.4501 28.2262 32.1945C27.7522 32.6668 27.3039 33.1702 26.8839 33.702C26.3882 34.3808 26.0202 35.1635 25.8015 36.0036C25.5829 36.8437 25.5182 37.7241 25.6112 38.5926C25.7042 39.461 25.953 40.3 26.3429 41.0592C26.7328 41.8188 27.2559 42.4832 27.881 43.0136C29.1542 44.1056 30.7598 44.6032 32.3571 44.4C33.9543 44.1968 35.4176 43.3092 36.4365 41.9256C36.7177 41.5416 37.0916 40.8732 37.4752 40.1588C37.884 39.3942 38.386 38.4165 38.9422 37.3214C40.0511 35.117 41.3965 32.3722 42.6973 29.695C44.242 26.5057 45.7751 23.3093 47.296 20.106L47.7149 19.2207C47.9299 18.7654 47.9935 18.2402 47.8939 17.7378C47.7943 17.2355 47.5387 16.7885 47.1716 16.4759Z"
            fill="#1074D8"
        />
    </g>
    <defs>
        <clipPath id="clip0_4104_593">
            <rect width="64" height="64" fill="white" />
        </clipPath>
    </defs>
</svg>