<svg
    width="64"
    height="54"
    viewBox="0 0 64 54"
    fill="none"
    xmlns="http://www.w3.org/2000/svg"
>
    <path
        d="M44.8 9.53006H51.2V53.9991H12.8V9.53006H19.2V6.3537C19.2 4.66884 19.8743 3.05301 21.0745 1.86164C22.2748 0.670279 23.9026 0.000976562 25.6 0.000976562H38.4C40.0974 0.000976562 41.7253 0.670279 42.9254 1.86164C44.1259 3.05301 44.8 4.66884 44.8 6.3537V9.53006ZM54.4 9.53006H57.6C59.2974 9.53006 60.9253 10.1994 62.1254 11.3907C63.3259 12.5821 64 14.1979 64 15.8828V47.6462C64 49.3313 63.3259 50.947 62.1254 52.1384C60.9253 53.3299 59.2974 53.9991 57.6 53.9991H54.4V9.53006ZM9.6 9.53006V53.9991H6.4C4.7026 53.9991 3.07475 53.3299 1.87452 52.1384C0.674285 50.947 0 49.3313 0 47.6462V15.8828C0 12.3888 2.88 9.53006 6.4 9.53006H9.6ZM25.6 6.3537V9.53006H38.4V6.3537H25.6Z"
        fill="#1074D8"
    />
</svg>