<svg
    width="64"
    height="64"
    viewBox="0 0 64 64"
    fill="none"
    xmlns="http://www.w3.org/2000/svg"
>
    <path
        d="M55.5433 14.4749L41.3623 1.13212C40.5864 0.402124 39.5601 0 38.4724 0H4.12457C1.85032 0 0 1.7725 0 3.95138V60.0484C0 62.2276 1.85019 64 4.12457 64H52.6531C54.9275 64 56.8889 62.2276 56.8889 60.0484V17.294C56.8889 16.2408 56.3276 15.2132 55.5433 14.4749ZM51.8996 18.3565H38.192V4.67336L51.8996 18.3565ZM4.87822 59.3264V4.67352H33.3136V18.1866C33.3136 20.8574 35.5818 23.03 38.3694 23.03H51.8992V59.3268H4.87822V59.3264ZM22.1775 29.2846L14.9771 38.6894L22.0907 48.3568L18.1036 51.0492L8.96874 38.6354L18.2437 26.5208L22.1775 29.2846ZM38.8285 26.5061L48.2762 38.6462L38.8226 51.0788L34.8795 48.3272L42.2164 38.6785L34.9176 29.2994L38.8285 26.5061ZM28.7042 22.443L33.517 23.2055L28.0628 54.8028L23.2498 54.04L28.7042 22.443Z"
        fill="#1074D8"
    />
</svg>