<svg
    width="1440"
    height="893"
    viewBox="0 0 1440 893"
    fill="none"
    xmlns="http://www.w3.org/2000/svg"
>
    <path
        d="M474.941 126.27C361.727 144 109.871 48.2698 0 0V234H1440V128.5C1306.56 53.139 1156.47 50.7752 1100.2 59.6274C1067.51 63.7502 1023.85 64.3648 980.51 64.846C913.946 65.585 846.992 61.0181 780.535 64.8717C649.627 72.4625 523.532 117.689 474.941 126.27Z"
        fill="#F6F8FD"
    />
    <path
        d="M249.093 744.5C193.452 741.5 59.0873 710.667 0 678V219L1439.5 229C1439.5 285 1440 789.5 1440 892.5C1358.85 798.882 1173.44 722.624 1061.3 701.935C1011.68 692.781 963.19 710.593 913.979 721.744C840.344 738.429 747.402 744.872 693.106 730C638.29 718.356 602.239 713.326 564.088 711.153C497.756 707.375 431.541 716.861 366.326 729.558C322.565 738.079 282.012 744.5 249.093 744.5Z"
        fill="#F6F8FD"
    />
</svg>