<svg
    width="1440"
    height="605"
    viewBox="0 0 1440 605"
    fill="none"
    xmlns="http://www.w3.org/2000/svg"
>
    <path
        d="M567.749 106.438C261.045 106.438 51.1498 28.4838 -0.000100136 0C0.500022 149.448 7.62939e-06 572.802 0 588.297C-1.95941e-05 628.091 135.389 590.055 265.086 544.488C420.234 489.98 584.321 462.54 748.229 475.814C913.544 489.202 1108.95 503.12 1159.41 498.715C1259.95 499.115 1388.36 483.89 1440 476.228C1438.7 360.46 1440 111.245 1440 36.4874C1382.83 16.1365 1261.59 5.88408 1145.35 8.96285C969.971 13.6077 795.172 82.8937 620.856 102.716C600.42 105.04 582.177 106.438 567.749 106.438Z"
        fill="#F6F8FD"
    />
</svg>